<svg xmlns="http://www.w3.org/2000/svg" viewBox="0 0 41 46.72"><defs><style>.cls-1{fill:#3f72b8;}</style></defs><title>clock-icon</title><g id="Layer_2" data-name="Layer 2"><g id="Layer_2-2" data-name="Layer 2"><path class="cls-1" d="M38.24,26.9A17.57,17.57,0,1,0,10.36,41.14L8.44,44.49a1.49,1.49,0,0,0,.56,2,1.47,1.47,0,0,0,.73.19A1.49,1.49,0,0,0,11,46l1.88-3.29a17.59,17.59,0,0,0,15.44,0L30.21,46a1.49,1.49,0,0,0,1.3.75,1.47,1.47,0,0,0,.73-.19,1.49,1.49,0,0,0,.56-2l-1.89-3.31A17.55,17.55,0,0,0,38.24,26.9ZM20.67,41.48A14.58,14.58,0,1,1,35.24,26.9,14.59,14.59,0,0,1,20.67,41.48Z"/><path class="cls-1" d="M29.67,27.06a1.49,1.49,0,0,1-1.49,1.49H19.56A.57.57,0,0,1,19,28V22a1.49,1.49,0,1,1,3,0v3.54h6.21A1.49,1.49,0,0,1,29.67,27.06Z"/><path class="cls-1" d="M31.12,2.37h0a7.29,7.29,0,0,1,3.6.93,7.52,7.52,0,0,1,3.65,4.84,8.57,8.57,0,0,1,0,4.41A26.63,26.63,0,0,0,24.89,5.2a8.46,8.46,0,0,1,6.23-2.83Zm0-2.37a11,11,0,0,0-9.55,5.8A11,11,0,0,0,21,7.05a24.27,24.27,0,0,1,17.91,9.78,11,11,0,0,0,.66-1C42.48,10.5,40.83,4,35.87,1.23A9.78,9.78,0,0,0,31.12,0Z"/><path class="cls-1" d="M9.88,2.37A8.48,8.48,0,0,1,16.11,5.2,26.59,26.59,0,0,0,2.68,12.55a8.57,8.57,0,0,1-.05-4.41A7.55,7.55,0,0,1,6.28,3.3a7.29,7.29,0,0,1,3.6-.93ZM9.88,0A9.78,9.78,0,0,0,5.13,1.23C.17,4-1.48,10.5,1.46,15.78a11,11,0,0,0,.66,1A24.27,24.27,0,0,1,20,7.05a11,11,0,0,0-.6-1.25A11,11,0,0,0,9.88,0Z"/></g></g></svg>