<svg class="my-auto"
                            xmlns="http://www.w3.org/2000/svg"
                            xmlns:xlink="http://www.w3.org/1999/xlink"
                            width="108px" height="36px">
                        <path fill-rule="evenodd"  fill="rgb(38, 39, 45)"
                              d="M108.000,9.522 C108.000,9.522 107.124,11.978 105.590,13.467 C104.749,14.284 100.926,15.008 98.578,15.211 L97.565,18.434 C99.099,16.094 103.050,16.300 102.913,18.434 C102.694,21.839 100.414,22.690 99.099,23.328 C97.618,24.048 96.848,23.906 96.339,23.966 C96.427,23.988 97.982,24.012 98.530,24.392 C100.064,25.456 99.186,26.732 100.064,26.732 C100.502,26.732 100.728,26.096 100.872,25.669 C101.160,24.817 101.817,24.817 101.817,24.817 C101.817,24.817 102.845,24.678 103.160,24.737 C104.020,24.901 103.611,25.501 103.461,25.927 C103.395,26.113 102.975,26.938 102.785,27.176 C102.036,28.115 100.484,28.246 99.537,28.222 C98.084,28.185 97.434,27.371 97.434,26.094 C97.434,24.590 95.681,24.605 95.681,24.605 L94.600,27.583 C94.600,27.583 94.462,28.244 94.024,28.244 C93.421,28.244 93.122,28.205 92.026,28.205 C91.369,28.205 91.532,27.583 91.532,27.583 L92.732,24.230 C92.732,24.230 90.559,28.244 88.214,28.218 C87.488,28.209 86.644,28.201 86.023,27.411 C85.369,26.580 85.577,25.456 85.943,24.373 C86.534,22.625 87.323,20.682 87.133,20.775 C85.747,21.449 84.810,20.851 84.624,20.754 C84.000,21.595 83.395,21.991 82.531,22.349 C81.115,29.064 75.688,28.958 74.040,27.158 C73.043,26.070 72.894,24.422 73.372,22.566 C73.134,22.748 72.672,22.923 72.233,22.930 C71.793,22.937 71.377,22.777 71.338,22.770 C71.101,23.719 70.728,24.942 70.260,25.669 C68.286,28.736 65.658,28.434 64.597,27.583 C63.988,27.095 63.513,26.544 63.075,25.692 C62.856,26.118 62.371,26.937 61.322,27.608 C60.052,28.419 57.083,28.785 55.267,26.632 C53.850,24.953 53.344,22.326 54.354,18.685 C55.231,15.527 57.023,13.498 57.906,12.665 C59.979,10.707 62.608,9.808 64.535,9.897 C68.305,10.071 69.182,11.992 69.257,13.383 C69.668,13.090 70.160,12.784 70.745,12.501 C73.813,11.011 76.816,11.556 80.826,12.075 C86.369,12.793 90.725,12.768 96.112,12.093 C96.303,11.544 96.483,11.053 96.483,11.053 C96.483,11.053 97.962,6.291 98.752,3.769 C99.163,2.460 99.578,1.725 100.202,1.338 C101.195,0.723 102.802,0.872 103.390,1.687 C103.865,2.345 104.429,3.763 102.829,6.694 C102.094,8.039 100.690,10.504 100.208,11.053 L99.862,11.551 C106.150,10.521 108.000,9.522 108.000,9.522 ZM84.644,19.587 C85.092,19.304 85.408,18.551 85.258,18.134 C85.064,17.598 84.373,17.601 84.158,18.028 C83.656,19.025 84.674,19.565 84.644,19.587 ZM76.177,25.243 C76.616,26.945 79.684,26.945 80.833,22.902 C80.843,22.834 80.876,22.697 80.889,22.629 C80.853,22.629 77.930,22.477 78.150,20.987 C78.248,20.321 79.464,20.562 80.560,20.562 C80.825,20.562 81.064,20.559 81.283,20.553 C81.322,19.886 81.174,19.243 80.560,18.647 C79.903,18.009 78.096,18.222 76.835,21.200 C76.135,22.854 75.933,24.296 76.177,25.243 ZM63.952,21.650 C63.952,21.650 65.315,20.497 65.267,18.458 C65.249,17.707 64.499,17.222 63.952,18.245 C63.340,19.390 63.952,21.650 63.952,21.650 ZM80.826,14.415 C74.463,13.180 71.853,13.340 69.869,15.267 C67.896,17.182 67.337,16.116 67.398,15.846 C67.538,15.218 67.646,14.354 67.583,13.834 C67.444,12.688 66.750,11.897 65.192,11.862 C63.220,11.819 60.983,12.854 59.522,15.881 C58.061,18.908 57.399,23.054 58.473,24.416 C59.835,26.142 62.334,24.508 62.384,23.483 C62.224,23.011 60.586,18.028 63.273,16.585 C64.599,15.873 68.554,16.969 64.171,23.139 C63.952,24.629 67.239,28.033 69.384,24.179 C69.822,23.391 69.944,22.408 69.999,21.505 C69.226,20.477 68.744,19.238 69.146,18.249 C69.476,17.439 70.381,17.361 70.739,17.486 C71.648,17.806 71.832,18.982 71.654,21.028 C71.849,21.326 72.119,21.382 72.452,21.413 C73.506,21.512 73.858,20.971 73.971,20.857 C75.114,18.350 77.419,16.937 79.175,16.949 C81.939,16.969 82.631,18.708 82.712,20.443 C83.418,20.395 83.746,20.270 83.875,20.129 C83.450,19.756 83.213,19.047 83.162,18.772 C83.012,17.948 83.341,17.383 83.857,17.123 C84.331,16.884 85.275,16.778 85.783,17.593 C86.465,18.688 85.307,19.993 85.307,19.993 C85.491,20.173 86.030,20.315 86.696,19.711 C87.350,19.118 88.083,17.987 88.230,17.796 C88.888,16.945 91.282,17.213 91.282,17.213 C91.282,17.213 90.419,19.882 89.853,21.626 C89.490,22.743 88.474,25.351 88.757,25.881 C89.271,26.844 90.823,25.161 90.823,25.161 C92.380,23.653 93.944,19.660 93.944,19.660 C93.944,19.660 94.666,17.250 95.266,15.277 C91.009,15.302 85.449,15.313 80.826,14.415 ZM96.050,22.902 C96.050,22.902 98.572,23.287 99.976,20.562 C101.729,17.158 98.003,18.009 96.908,20.349 L96.050,22.902 ZM101.198,8.283 C102.659,6.048 103.207,3.655 102.952,2.964 C102.696,2.273 102.124,2.921 101.885,3.676 C101.337,5.410 100.015,9.584 99.523,11.028 C99.724,10.725 100.674,9.086 101.198,8.283 ZM52.814,13.441 C52.202,14.035 49.940,14.625 47.613,14.990 C46.265,19.039 45.522,21.406 45.298,22.157 C44.915,23.439 43.609,26.648 45.143,26.659 C46.008,26.665 46.152,25.155 46.458,24.957 C47.116,24.532 48.755,24.319 48.974,24.957 C49.051,25.182 48.649,26.021 48.649,26.021 C48.649,26.021 47.773,28.361 44.325,28.339 C43.820,28.335 40.380,27.955 41.914,23.415 C42.140,22.747 43.145,19.195 44.303,15.338 C44.051,15.349 43.808,15.356 43.582,15.356 C42.371,15.356 41.300,15.357 40.333,15.358 C40.608,17.808 40.751,18.261 40.702,20.945 C40.676,22.365 40.354,29.665 38.675,32.739 C37.263,35.325 35.897,35.751 34.991,35.943 C34.126,36.126 32.305,35.926 31.620,34.633 C30.764,33.018 31.675,30.078 31.675,30.078 L33.649,24.142 C32.596,26.171 31.031,28.280 29.115,28.150 C27.136,28.016 27.088,26.497 27.088,26.497 C27.088,26.497 25.946,28.248 23.672,28.150 C20.783,28.024 20.578,26.050 20.578,26.050 C20.578,26.050 18.463,28.199 16.746,28.150 C16.019,28.129 15.175,28.133 14.554,27.344 C13.901,26.512 14.109,25.388 14.475,24.306 C15.066,22.557 15.371,21.616 15.606,20.731 C15.511,20.828 14.828,21.974 13.376,22.107 C13.052,22.136 12.653,22.144 12.378,22.101 C11.678,25.112 10.301,26.695 9.268,27.376 C6.974,28.890 3.259,28.676 1.442,26.523 C0.026,24.843 -0.481,22.216 0.530,18.576 C1.406,15.418 3.218,13.408 4.082,12.555 C6.355,10.312 8.520,9.768 10.738,10.037 C12.151,10.208 14.701,11.210 14.950,13.630 C15.399,13.290 15.964,12.925 16.654,12.590 C19.722,11.100 22.944,11.858 26.954,12.377 C30.814,12.877 34.021,12.944 37.415,12.694 C37.611,12.131 37.798,11.618 37.798,11.618 C37.798,11.618 39.278,6.856 40.068,4.334 C40.479,3.025 40.894,2.291 41.518,1.904 C42.511,1.288 44.117,1.438 44.706,2.253 C45.181,2.911 45.606,4.692 44.145,7.259 C43.386,8.592 42.006,11.069 41.524,11.618 L41.169,12.310 C42.425,12.151 43.737,11.959 45.143,11.739 C45.237,11.724 45.327,11.709 45.419,11.695 C46.509,8.226 47.562,5.180 48.098,4.530 C48.537,3.998 49.789,3.326 50.622,2.917 C51.080,2.691 51.279,3.041 51.279,3.041 L48.831,11.103 C53.129,10.289 55.224,9.611 55.224,9.611 C55.224,9.611 54.348,11.952 52.814,13.441 ZM23.271,24.811 C23.380,26.341 24.771,26.417 25.590,25.896 C26.104,25.569 26.805,24.663 27.170,23.429 C27.624,21.896 27.950,20.499 27.864,19.843 C27.864,19.843 28.092,18.494 26.850,18.329 C25.954,18.211 25.115,19.154 24.302,20.968 C23.462,22.843 23.220,24.105 23.271,24.811 ZM11.714,20.928 C11.714,20.928 12.202,19.457 11.385,18.622 C11.048,18.278 10.055,18.300 10.235,19.349 C10.454,20.626 11.495,20.928 11.714,20.928 ZM27.831,14.718 C21.796,13.918 17.298,13.426 15.559,15.356 C14.412,16.628 13.669,16.390 13.410,16.129 C13.323,16.040 13.368,15.844 13.368,15.844 L13.442,15.534 C13.885,13.374 12.159,12.074 10.278,12.496 C8.692,12.851 7.278,13.839 5.817,16.865 C4.355,19.892 4.114,23.466 5.068,24.832 C6.297,26.594 8.380,26.728 9.861,24.931 C10.738,23.867 11.204,22.834 11.385,21.974 C10.680,21.820 9.650,20.945 9.377,20.041 C9.104,19.142 9.249,18.250 9.906,17.825 C10.422,17.491 11.841,17.299 12.426,18.640 C12.938,19.811 12.525,21.031 12.525,21.031 C12.667,21.142 13.644,21.268 14.343,20.684 C15.288,19.894 15.957,17.915 16.965,17.360 C17.584,17.018 19.814,17.145 19.814,17.145 C19.814,17.145 18.846,20.353 18.280,22.096 C17.917,23.213 17.081,25.392 17.513,25.831 C18.517,26.850 20.267,24.955 20.267,24.955 C20.267,24.955 20.203,21.554 23.088,18.823 C24.288,17.687 25.535,17.062 27.069,17.145 C28.603,17.228 28.594,18.461 28.594,18.461 C28.594,18.461 29.183,17.563 29.471,17.360 C30.091,16.921 32.101,17.145 32.101,17.145 C32.101,17.145 30.337,22.679 30.025,23.606 C29.839,24.159 29.250,26.071 30.238,26.061 C32.056,26.042 33.598,23.500 34.585,21.326 L36.574,15.346 C33.208,15.310 31.323,15.180 27.831,14.718 ZM39.446,16.083 L34.566,31.160 C34.566,31.160 34.195,32.417 34.396,32.967 C34.550,33.388 34.841,33.575 35.461,33.331 C36.130,33.070 37.026,32.450 38.108,29.803 C39.168,27.212 40.187,21.124 39.446,16.083 ZM42.514,8.848 C43.975,6.613 44.523,4.220 44.267,3.529 C44.012,2.839 43.440,3.487 43.201,4.242 C42.653,5.976 41.331,10.149 40.839,11.593 C41.040,11.290 41.990,9.651 42.514,8.848 Z"/>
                        </svg>