<svg xmlns="http://www.w3.org/2000/svg" viewBox="0 0 42 51.97"><defs><style>.cls-1{fill:#3f72b8;}</style></defs><title>lock-icon</title><g id="Layer_2" data-name="Layer 2"><g id="Layer_2-2" data-name="Layer 2"><path class="cls-1" d="M39.69,21.23H37.22V16.14A16.14,16.14,0,0,0,21.07,0h-.15A16.13,16.13,0,0,0,4.78,16.14v5.09H2.3A2.3,2.3,0,0,0,0,23.53V49.67A2.3,2.3,0,0,0,2.3,52H39.69A2.31,2.31,0,0,0,42,49.67V23.53A2.31,2.31,0,0,0,39.69,21.23ZM7.58,16.14A13.35,13.35,0,0,1,20.92,2.8h.15A13.36,13.36,0,0,1,34.42,16.14v5.09H32V16.58a11,11,0,1,0-22.09,0v4.65H7.58Zm21.66.44V20.4H12.75V16.58a8.25,8.25,0,1,1,16.49,0Zm10,32.59H2.8V24H39.2Z"/><path class="cls-1" d="M28.41,33.3l-7.78,7.78h0a1.18,1.18,0,0,1-.81.34,1.14,1.14,0,0,1-.81-.34h0l-5.41-5.42a1.16,1.16,0,0,1,.82-2,1.12,1.12,0,0,1,.81.34l4.6,4.61,7-7a1.16,1.16,0,0,1,.82-.34,1.16,1.16,0,0,1,.82,2Z"/></g></g></svg>